# xmcd
#
# Track frame offsets: 
#        150
#        18440
#        35099
#        54851
#        71819
#        89336
#        107386
#        121376
#        135005
#        154395
#        168522
#        183343
#
# Disc length: 2654 seconds
#
# Revision: 2
# Processed by: cddbd v1.5.2PL0 Copyright (c) Steve Scherf et al.
# Submitted via: ExactAudioCopy v1.0b3
#
DISCID=970a5c0c
DTITLE=Kutless - It Is Well
DYEAR=2009
DGENRE=Contemporary Christian
TTITLE0=It Is Well
TTITLE1=Amazed
TTITLE2=Hungry
TTITLE3=Taken By Love
TTITLE4=What Faith Can Do
TTITLE5=Remember Me
TTITLE6=God of Wonders
TTITLE7=Everything I Need
TTITLE8=Give Us Clean Hands
TTITLE9=You Save Me
TTITLE10=Redeemer
TTITLE11=I'm Still Yours
EXTD=
EXTT0=
EXTT1=
EXTT2=
EXTT3=
EXTT4=
EXTT5=
EXTT6=
EXTT7=
EXTT8=
EXTT9=
EXTT10=
EXTT11=
PLAYORDER=
